HIERARCHY
ROOT mixamorig:Hips
{
	OFFSET -0.000008 104.274872 1.554316
	CHANNELS 6 Xposition Yposition Zposition Xrotation Yrotation Zrotation
	JOINT mixamorig:Spine
	{
		OFFSET -0.000005 10.181595 0.131519
		CHANNELS 6 Xposition Yposition Zposition Xrotation Yrotation Zrotation
		JOINT mixamorig:Spine1
		{
			OFFSET -0.000000 9.893959 -1.470707
			CHANNELS 6 Xposition Yposition Zposition Xrotation Yrotation Zrotation
			JOINT mixamorig:Spine2
			{
				OFFSET -0.000000 9.220757 -1.370641
				CHANNELS 6 Xposition Yposition Zposition Xrotation Yrotation Zrotation
				JOINT mixamorig:Neck
				{
					OFFSET 0.000001 16.740417 -2.049036
					CHANNELS 6 Xposition Yposition Zposition Xrotation Yrotation Zrotation
					JOINT mixamorig:Head
					{
						OFFSET 0.000000 9.617874 1.685006
						CHANNELS 6 Xposition Yposition Zposition Xrotation Yrotation Zrotation
						JOINT mixamorig:HeadTop_End
						{
							OFFSET 0.000002 22.037354 7.501101
							CHANNELS 6 Xposition Yposition Zposition Xrotation Yrotation Zrotation
							End Site
							{
								OFFSET 0.000168 2310.654297 -282.823242
							}
						}
					}
				}
				JOINT mixamorig:RightShoulder
				{
					OFFSET -4.569970 11.014908 -2.160885
					CHANNELS 6 Xposition Yposition Zposition Xrotation Yrotation Zrotation
					JOINT mixamorig:RightArm
					{
						OFFSET -10.592851 -0.524811 -2.232101
						CHANNELS 6 Xposition Yposition Zposition Xrotation Yrotation Zrotation
						JOINT mixamorig:RightForeArm
						{
							OFFSET -27.841511 0.000031 -0.000004
							CHANNELS 6 Xposition Yposition Zposition Xrotation Yrotation Zrotation
							JOINT mixamorig:RightHand
							{
								OFFSET -28.328831 -0.000015 0.000015
								CHANNELS 6 Xposition Yposition Zposition Xrotation Yrotation Zrotation
								JOINT mixamorig:RightHandThumb1
								{
									OFFSET -2.464806 -1.573990 2.681852
									CHANNELS 6 Xposition Yposition Zposition Xrotation Yrotation Zrotation
									JOINT mixamorig:RightHandThumb2
									{
										OFFSET -3.215179 -1.872803 1.924282
										CHANNELS 6 Xposition Yposition Zposition Xrotation Yrotation Zrotation
										JOINT mixamorig:RightHandThumb3
										{
											OFFSET -2.654831 -1.527969 1.512609
											CHANNELS 6 Xposition Yposition Zposition Xrotation Yrotation Zrotation
											JOINT mixamorig:RightHandThumb4
											{
												OFFSET -2.018814 -1.152008 1.108052
												CHANNELS 6 Xposition Yposition Zposition Xrotation Yrotation Zrotation
												End Site
												{
													OFFSET -188.809540 -114.533607 132.431396
												}
											}
										}
									}
								}
								JOINT mixamorig:RightHandIndex1
								{
									OFFSET -9.108284 -0.517868 2.259835
									CHANNELS 6 Xposition Yposition Zposition Xrotation Yrotation Zrotation
									JOINT mixamorig:RightHandIndex2
									{
										OFFSET -3.699989 0.000000 0.001215
										CHANNELS 6 Xposition Yposition Zposition Xrotation Yrotation Zrotation
										JOINT mixamorig:RightHandIndex3
										{
											OFFSET -2.850006 0.000031 -0.000522
											CHANNELS 6 Xposition Yposition Zposition Xrotation Yrotation Zrotation
											JOINT mixamorig:RightHandIndex4
											{
												OFFSET -2.772186 -0.000015 -0.000020
												CHANNELS 6 Xposition Yposition Zposition Xrotation Yrotation Zrotation
												End Site
												{
													OFFSET -277.218445 0.000000 -0.050231
												}
											}
										}
									}
								}
								JOINT mixamorig:RightHandMiddle1
								{
									OFFSET -9.532516 -0.000031 -0.000023
									CHANNELS 6 Xposition Yposition Zposition Xrotation Yrotation Zrotation
									JOINT mixamorig:RightHandMiddle2
									{
										OFFSET -3.700005 -0.000015 0.003713
										CHANNELS 6 Xposition Yposition Zposition Xrotation Yrotation Zrotation
										JOINT mixamorig:RightHandMiddle3
										{
											OFFSET -2.949974 0.000015 -0.002054
											CHANNELS 6 Xposition Yposition Zposition Xrotation Yrotation Zrotation
											JOINT mixamorig:RightHandMiddle4
											{
												OFFSET -2.946640 0.000000 -0.000156
												CHANNELS 6 Xposition Yposition Zposition Xrotation Yrotation Zrotation
												End Site
												{
													OFFSET -294.664337 0.000000 -0.113670
												}
											}
										}
									}
								}
								JOINT mixamorig:RightHandRing1
								{
									OFFSET -9.103600 -0.043076 -1.865134
									CHANNELS 6 Xposition Yposition Zposition Xrotation Yrotation Zrotation
									JOINT mixamorig:RightHandRing2
									{
										OFFSET -3.379288 0.000000 -0.001055
										CHANNELS 6 Xposition Yposition Zposition Xrotation Yrotation Zrotation
										JOINT mixamorig:RightHandRing3
										{
											OFFSET -2.889687 -0.000015 0.000379
											CHANNELS 6 Xposition Yposition Zposition Xrotation Yrotation Zrotation
											JOINT mixamorig:RightHandRing4
											{
												OFFSET -2.638809 -0.000015 0.000941
												CHANNELS 6 Xposition Yposition Zposition Xrotation Yrotation Zrotation
												End Site
												{
													OFFSET -263.880371 0.000000 0.516020
												}
											}
										}
									}
								}
								JOINT mixamorig:RightHandPinky1
								{
									OFFSET -8.076683 -0.486710 -3.806280
									CHANNELS 6 Xposition Yposition Zposition Xrotation Yrotation Zrotation
									JOINT mixamorig:RightHandPinky2
									{
										OFFSET -3.600014 -0.000015 -0.003747
										CHANNELS 6 Xposition Yposition Zposition Xrotation Yrotation Zrotation
										JOINT mixamorig:RightHandPinky3
										{
											OFFSET -2.099983 0.000000 -0.005739
											CHANNELS 6 Xposition Yposition Zposition Xrotation Yrotation Zrotation
											JOINT mixamorig:RightHandPinky4
											{
												OFFSET -2.115768 -0.000031 -0.003680
												CHANNELS 6 Xposition Yposition Zposition Xrotation Yrotation Zrotation
												End Site
												{
													OFFSET -211.577087 0.000000 -0.350686
												}
											}
										}
									}
								}
							}
						}
					}
				}
				JOINT mixamorig:LeftShoulder
				{
					OFFSET 4.570447 11.014725 -2.160855
					CHANNELS 6 Xposition Yposition Zposition Xrotation Yrotation Zrotation
					JOINT mixamorig:LeftArm
					{
						OFFSET 10.592371 -0.524597 -2.232119
						CHANNELS 6 Xposition Yposition Zposition Xrotation Yrotation Zrotation
						JOINT mixamorig:LeftForeArm
						{
							OFFSET 27.841532 -0.000031 0.000026
							CHANNELS 6 Xposition Yposition Zposition Xrotation Yrotation Zrotation
							JOINT mixamorig:LeftHand
							{
								OFFSET 28.328846 -0.000061 0.000022
								CHANNELS 6 Xposition Yposition Zposition Xrotation Yrotation Zrotation
								JOINT mixamorig:LeftHandThumb1
								{
									OFFSET 2.466141 -1.576172 2.681732
									CHANNELS 6 Xposition Yposition Zposition Xrotation Yrotation Zrotation
									JOINT mixamorig:LeftHandThumb2
									{
										OFFSET 3.217812 -1.872070 1.916482
										CHANNELS 6 Xposition Yposition Zposition Xrotation Yrotation Zrotation
										JOINT mixamorig:LeftHandThumb3
										{
											OFFSET 2.656029 -1.528778 1.514513
											CHANNELS 6 Xposition Yposition Zposition Xrotation Yrotation Zrotation
											JOINT mixamorig:LeftHandThumb4
											{
												OFFSET 2.020889 -1.154053 1.115139
												CHANNELS 6 Xposition Yposition Zposition Xrotation Yrotation Zrotation
												End Site
												{
													OFFSET 190.885437 -115.081749 130.048782
												}
											}
										}
									}
								}
								JOINT mixamorig:LeftHandIndex1
								{
									OFFSET 9.109314 -0.518021 2.259871
									CHANNELS 6 Xposition Yposition Zposition Xrotation Yrotation Zrotation
									JOINT mixamorig:LeftHandIndex2
									{
										OFFSET 3.699989 0.000000 -0.000322
										CHANNELS 6 Xposition Yposition Zposition Xrotation Yrotation Zrotation
										JOINT mixamorig:LeftHandIndex3
										{
											OFFSET 2.850006 0.000000 0.000352
											CHANNELS 6 Xposition Yposition Zposition Xrotation Yrotation Zrotation
											JOINT mixamorig:LeftHandIndex4
											{
												OFFSET 2.774864 -0.000031 -0.000027
												CHANNELS 6 Xposition Yposition Zposition Xrotation Yrotation Zrotation
												End Site
												{
													OFFSET 277.486267 0.000000 -0.009857
												}
											}
										}
									}
								}
								JOINT mixamorig:LeftHandMiddle1
								{
									OFFSET 9.533394 0.000061 0.000044
									CHANNELS 6 Xposition Yposition Zposition Xrotation Yrotation Zrotation
									JOINT mixamorig:LeftHandMiddle2
									{
										OFFSET 3.699989 -0.000015 -0.000231
										CHANNELS 6 Xposition Yposition Zposition Xrotation Yrotation Zrotation
										JOINT mixamorig:LeftHandMiddle3
										{
											OFFSET 2.949997 -0.000015 -0.000059
											CHANNELS 6 Xposition Yposition Zposition Xrotation Yrotation Zrotation
											JOINT mixamorig:LeftHandMiddle4
											{
												OFFSET 2.952896 0.000031 0.000063
												CHANNELS 6 Xposition Yposition Zposition Xrotation Yrotation Zrotation
												End Site
												{
													OFFSET 295.289337 0.000000 0.022810
												}
											}
										}
									}
								}
								JOINT mixamorig:LeftHandRing1
								{
									OFFSET 9.104523 -0.042999 -1.865074
									CHANNELS 6 Xposition Yposition Zposition Xrotation Yrotation Zrotation
									JOINT mixamorig:LeftHandRing2
									{
										OFFSET 3.150009 -0.000031 0.000043
										CHANNELS 6 Xposition Yposition Zposition Xrotation Yrotation Zrotation
										JOINT mixamorig:LeftHandRing3
										{
											OFFSET 2.949982 -0.000015 0.000040
											CHANNELS 6 Xposition Yposition Zposition Xrotation Yrotation Zrotation
											JOINT mixamorig:LeftHandRing4
											{
												OFFSET 2.644348 0.000000 0.000057
												CHANNELS 6 Xposition Yposition Zposition Xrotation Yrotation Zrotation
												End Site
												{
													OFFSET 264.434631 0.000000 0.012105
												}
											}
										}
									}
								}
								JOINT mixamorig:LeftHandPinky1
								{
									OFFSET 8.077789 -0.486847 -3.806259
									CHANNELS 6 Xposition Yposition Zposition Xrotation Yrotation Zrotation
									JOINT mixamorig:LeftHandPinky2
									{
										OFFSET 3.599953 0.000031 0.014727
										CHANNELS 6 Xposition Yposition Zposition Xrotation Yrotation Zrotation
										JOINT mixamorig:LeftHandPinky3
										{
											OFFSET 2.100021 0.000015 0.007705
											CHANNELS 6 Xposition Yposition Zposition Xrotation Yrotation Zrotation
											JOINT mixamorig:LeftHandPinky4
											{
												OFFSET 2.125504 0.000031 0.007517
												CHANNELS 6 Xposition Yposition Zposition Xrotation Yrotation Zrotation
												End Site
												{
													OFFSET 212.550781 0.000000 0.625752
												}
											}
										}
									}
								}
							}
						}
					}
				}
			}
		}
	}
	JOINT mixamorig:RightUpLeg
	{
		OFFSET -8.207787 -6.751648 -1.599560
		CHANNELS 6 Xposition Yposition Zposition Xrotation Yrotation Zrotation
		JOINT mixamorig:RightLeg
		{
			OFFSET -0.000002 -44.370117 0.345942
			CHANNELS 6 Xposition Yposition Zposition Xrotation Yrotation Zrotation
			JOINT mixamorig:RightFoot
			{
				OFFSET 0.000003 -44.423679 -3.043532
				CHANNELS 6 Xposition Yposition Zposition Xrotation Yrotation Zrotation
				JOINT mixamorig:RightToeBase
				{
					OFFSET -0.000002 -8.728671 10.710558
					CHANNELS 6 Xposition Yposition Zposition Xrotation Yrotation Zrotation
					JOINT mixamorig:RightToe_End
					{
						OFFSET -0.000001 -0.000679 9.278119
						CHANNELS 6 Xposition Yposition Zposition Xrotation Yrotation Zrotation
						End Site
						{
							OFFSET 0.000000 -0.067690 927.812134
						}
					}
				}
			}
		}
	}
	JOINT mixamorig:LeftUpLeg
	{
		OFFSET 8.207793 -6.751686 -1.599556
		CHANNELS 6 Xposition Yposition Zposition Xrotation Yrotation Zrotation
		JOINT mixamorig:LeftLeg
		{
			OFFSET -0.000004 -44.370014 0.346954
			CHANNELS 6 Xposition Yposition Zposition Xrotation Yrotation Zrotation
			JOINT mixamorig:LeftFoot
			{
				OFFSET -0.000001 -44.423672 -3.044401
				CHANNELS 6 Xposition Yposition Zposition Xrotation Yrotation Zrotation
				JOINT mixamorig:LeftToeBase
				{
					OFFSET -0.000002 -8.728669 10.710558
					CHANNELS 6 Xposition Yposition Zposition Xrotation Yrotation Zrotation
					JOINT mixamorig:LeftToe_End
					{
						OFFSET -0.000003 -0.000679 9.278133
						CHANNELS 6 Xposition Yposition Zposition Xrotation Yrotation Zrotation
						End Site
						{
							OFFSET 0.000000 -0.068021 927.813477
						}
					}
				}
			}
		}
	}
}
MOTION
Frames: 3
Frame Time: 0.033333
0.000006 104.270477 1.554256 0.000010 0.000003 -0.000113 -0.000005 10.181587 0.131522 0.000001 -0.000003 0.000084 -0.000000 9.893967 -1.470711 0.000001 0.000000 -0.000000 -0.000000 9.220802 -1.370642 0.000000 -0.000000 -0.000000 0.000001 16.740433 -2.049030 0.000000 -0.000000 -0.000000 0.000000 9.617859 1.685014 0.000000 0.000000 0.000000 0.000002 22.037384 7.501101 0.000000 -0.000000 0.000000 -4.569968 11.014880 -2.160881 0.000008 0.000001 -0.000038 -10.592879 -0.524765 -2.231890 74.048116 29.652372 -22.580252 -27.841511 0.000013 0.000538 -52.170395 109.186994 69.112854 -28.328819 0.000005 0.000023 -0.000320 -0.000043 0.000003 -2.464425 -1.573763 2.682323 -48.542414 -167.365330 -11.506066 -3.215280 -1.872585 1.924664 154.196930 31.125923 1.134356 -2.654958 -1.527882 1.513073 143.450829 27.386538 -40.730771 -2.018838 -1.151996 1.108072 -0.000004 -0.000003 0.000000 -9.108390 -0.517565 2.260111 97.793071 16.624655 -19.066722 -3.700082 0.000307 0.001511 92.169428 14.410618 -14.935947 -2.850085 0.000356 -0.000279 90.675474 11.487045 -11.621396 -2.772158 -0.000014 -0.000019 0.000002 -0.000000 0.000001 -9.532580 0.000266 0.000231 90.853469 16.504262 -16.893534 -3.700079 0.000317 0.003963 89.597458 13.675893 -13.485376 -2.950066 0.000333 -0.001834 90.146613 12.171781 -12.195567 -2.946649 0.000002 -0.000154 -0.000002 -0.000000 0.000001 -9.103712 -0.042781 -1.864879 88.269909 19.273877 -18.666567 -3.379354 0.000315 -0.000803 90.862075 13.347731 -13.566587 -2.889754 0.000354 0.000629 95.907262 9.120570 -10.159970 -2.638828 -0.000002 0.000940 0.000000 -0.000000 0.000001 -8.076757 -0.486412 -3.806075 73.275198 19.024433 -14.089780 -3.600043 0.000270 -0.003550 78.699496 11.500727 -9.135966 -2.100031 0.000308 -0.005527 83.416431 7.293425 -6.301538 -2.115760 -0.000026 -0.003685 0.000004 -0.000002 -0.000003 4.570446 11.014691 -2.160851 -0.000018 0.000010 -0.000021 10.592410 -0.524464 -2.232359 75.509667 -15.523709 12.051402 27.841841 0.000071 -0.000181 106.969853 -70.462260 87.296941 28.328823 -0.000029 0.000030 0.000020 -0.000089 0.000000 2.465900 -1.576084 2.681910 -50.559495 176.096538 18.945823 3.217836 -1.871822 1.916373 153.876171 -26.588024 27.103534 2.656111 -1.528658 1.514458 135.453648 -29.029800 45.727526 2.020891 -1.154050 1.115158 0.000001 0.000003 0.000002 9.109370 -0.517869 2.259742 80.926205 -14.692099 12.540108 3.700037 0.000138 -0.000475 79.612808 -13.376806 11.177394 2.850042 0.000173 0.000214 77.213936 -12.087418 9.663597 2.774903 -0.000015 -0.000025 -0.000000 0.000003 -0.000000 9.533463 0.000205 -0.000101 82.086935 -14.385782 12.532826 3.700030 0.000163 -0.000362 82.693442 -14.370190 12.657814 2.950070 0.000155 -0.000199 82.535637 -16.615079 14.606337 2.952840 -0.000031 0.000064 0.000001 0.000002 0.000001 9.104594 -0.042861 -1.865223 80.486580 -15.033806 12.746380 3.150072 0.000186 -0.000083 84.938573 -15.811456 14.489546 2.950021 0.000164 -0.000064 88.529627 -15.773024 15.379984 2.644325 0.000012 0.000062 -0.000001 -0.000001 -0.000000 8.077836 -0.486752 -3.806385 64.751546 -18.693770 12.310183 3.599997 0.000122 0.014577 65.038079 -15.445073 10.224673 2.100051 0.000145 0.007544 69.221037 -13.410950 9.621752 2.125493 -0.000017 0.007510 -0.000005 0.000001 0.000001 -8.207786 -6.751667 -1.599560 -0.077001 -0.000003 0.000080 -0.000002 -44.370110 0.345938 0.153719 -0.000000 -0.000000 0.000000 -44.423679 -3.043532 -0.076700 0.000000 -0.000002 -0.000006 -8.728667 10.710559 -0.000009 -0.000000 -0.000000 -0.000001 -0.000679 9.278123 0.000000 -0.000000 -0.000000 8.207792 -6.751710 -1.599556 -0.074518 -0.000003 0.000081 -0.000002 -44.370014 0.346960 0.148822 0.000002 0.000000 -0.000001 -44.423664 -3.044403 -0.074314 0.000000 -0.000002 -0.000004 -8.728671 10.710558 0.000007 -0.000000 -0.000000 0.000000 -0.000680 9.278137 -0.000000 0.000000 -0.000001 
0.000006 104.270477 1.554256 0.000010 0.000003 -0.000113 -0.000005 10.181587 0.131522 0.000001 -0.000003 0.000084 -0.000000 9.893967 -1.470711 0.000001 0.000000 -0.000000 -0.000000 9.220802 -1.370642 0.000000 -0.000000 -0.000000 0.000001 16.740433 -2.049030 0.000000 -0.000000 -0.000000 0.000000 9.617859 1.685014 0.000000 0.000000 0.000000 0.000002 22.037384 7.501101 0.000000 -0.000000 0.000000 -4.569968 11.014880 -2.160881 0.000008 0.000001 -0.000038 -10.592872 -0.524784 -2.231881 75.584622 35.024592 -27.498680 -27.841526 -0.000002 0.000539 -50.482208 106.804290 64.818400 -28.328817 0.000020 0.000031 -0.000317 -0.000041 0.000005 -2.464446 -1.573723 2.682305 -51.734711 -169.725529 -20.871550 -3.215282 -1.872567 1.924634 151.251766 31.669299 7.382479 -2.654953 -1.527884 1.513063 143.453288 27.821411 -34.140072 -2.018831 -1.152012 1.108054 -0.000001 -0.000001 0.000004 -9.108389 -0.517547 2.260119 97.668625 14.877035 -17.037681 -3.700068 0.000313 0.001506 94.916632 13.276766 -14.430229 -2.850097 0.000354 -0.000277 93.549317 11.691824 -12.432823 -2.772166 -0.000015 -0.000018 0.000000 0.000004 0.000001 -9.532578 0.000261 0.000229 90.150451 15.851718 -16.035336 -3.700065 0.000305 0.003953 90.308789 12.506464 -12.477902 -2.950061 0.000329 -0.001821 92.106050 12.188810 -12.634236 -2.946638 0.000002 -0.000154 -0.000005 0.000000 -0.000001 -9.103704 -0.042768 -1.864880 86.862166 19.279461 -18.226088 -3.379346 0.000313 -0.000818 89.679346 11.193053 -11.148555 -2.889756 0.000334 0.000634 96.384003 8.481047 -9.530484 -2.638811 -0.000041 0.000939 -0.000004 0.000004 0.000001 -8.076770 -0.486436 -3.806067 71.868323 21.812043 -15.782899 -3.600049 0.000246 -0.003576 75.326639 11.932266 -8.934574 -2.100008 0.000306 -0.005532 80.158574 6.930935 -5.645724 -2.115773 -0.000026 -0.003679 0.000000 -0.000001 -0.000004 4.570446 11.014691 -2.160851 -0.000018 0.000010 -0.000021 10.592423 -0.524457 -2.232384 75.264279 -20.504061 15.877217 27.841837 0.000066 -0.000205 108.726838 -74.022517 92.879706 28.328840 -0.000029 0.000019 0.000020 -0.000088 -0.000001 2.465919 -1.576106 2.681920 -48.085976 176.811632 10.262247 3.217867 -1.871845 1.916401 158.725564 -24.270978 35.425019 2.656105 -1.528673 1.514481 133.364361 -29.728344 56.260220 2.020884 -1.154082 1.115134 -0.000001 0.000008 0.000002 9.109351 -0.517874 2.259729 79.887928 -16.612337 13.930318 3.700038 0.000133 -0.000459 77.589952 -11.557961 9.315788 2.850047 0.000186 0.000211 77.259897 -9.334238 7.464371 2.774902 -0.000046 -0.000023 0.000000 0.000001 -0.000000 9.533451 0.000188 -0.000083 80.600446 -16.467823 13.985202 3.700044 0.000184 -0.000371 82.484172 -11.098498 9.735121 2.950052 0.000173 -0.000211 83.352357 -11.475331 10.225269 2.952864 -0.000015 0.000065 0.000000 -0.000000 0.000001 9.104574 -0.042870 -1.865215 78.269542 -16.628927 13.564441 3.150048 0.000188 -0.000081 85.020446 -12.926951 11.859321 2.950030 0.000156 -0.000086 87.461597 -11.719467 11.216415 2.644310 0.000015 0.000056 -0.000001 -0.000000 -0.000000 8.077820 -0.486764 -3.806413 65.991232 -19.610590 13.212365 3.600006 0.000127 0.014585 68.039011 -17.265103 12.070184 2.100029 0.000152 0.007551 72.221553 -13.091897 9.931011 2.125490 -0.000000 0.007513 -0.000001 -0.000000 -0.000001 -8.207786 -6.751667 -1.599560 -0.077001 -0.000003 0.000080 -0.000002 -44.370110 0.345938 0.153719 -0.000000 -0.000000 0.000000 -44.423679 -3.043532 -0.076700 0.000000 -0.000002 -0.000006 -8.728667 10.710559 -0.000009 -0.000000 -0.000000 -0.000001 -0.000679 9.278123 0.000000 -0.000000 -0.000000 8.207792 -6.751710 -1.599556 -0.074518 -0.000003 0.000081 -0.000002 -44.370014 0.346960 0.148822 0.000002 0.000000 -0.000001 -44.423664 -3.044403 -0.074314 0.000000 -0.000002 -0.000004 -8.728671 10.710558 0.000007 -0.000000 -0.000000 0.000000 -0.000680 9.278137 -0.000000 0.000000 -0.000001 
0.000006 104.270477 1.554256 0.000010 0.000003 -0.000113 -0.000005 10.181587 0.131522 0.000001 -0.000003 0.000084 -0.000000 9.893967 -1.470711 0.000001 0.000000 -0.000000 -0.000000 9.220802 -1.370642 0.000000 -0.000000 -0.000000 0.000001 16.740433 -2.049030 0.000000 -0.000000 -0.000000 0.000000 9.617859 1.685014 0.000000 0.000000 0.000000 0.000002 22.037384 7.501101 0.000000 -0.000000 0.000000 -4.569968 11.014880 -2.160881 0.000008 0.000001 -0.000038 -10.592861 -0.524793 -2.231854 75.789425 39.784681 -31.458075 -27.841532 -0.000003 0.000561 -49.288547 104.500200 61.294507 -28.328817 0.000022 0.000033 -0.000317 -0.000045 0.000009 -2.464416 -1.573745 2.682314 -50.356314 -167.182349 -16.594945 -3.215266 -1.872594 1.924642 151.309604 31.775611 8.085933 -2.654978 -1.527877 1.513067 143.269925 27.844957 -34.265956 -2.018831 -1.152000 1.108068 -0.000001 0.000001 0.000004 -9.108356 -0.517547 2.260124 97.747944 14.774418 -16.944176 -3.700066 0.000340 0.001484 94.914126 13.116099 -14.255007 -2.850104 0.000364 -0.000265 93.233073 11.581184 -12.247881 -2.772172 -0.000001 -0.000020 0.000001 -0.000000 0.000001 -9.532595 0.000270 0.000228 90.172424 15.425193 -15.613042 -3.700073 0.000318 0.003949 90.211814 12.438584 -12.388920 -2.950073 0.000331 -0.001805 92.116535 12.207636 -12.656050 -2.946638 0.000012 -0.000156 -0.000000 -0.000002 -0.000001 -9.103703 -0.042759 -1.864882 87.479103 18.976929 -18.130213 -3.379334 0.000320 -0.000824 89.668417 10.986629 -10.941137 -2.889765 0.000336 0.000639 96.247419 8.413167 -9.432098 -2.638809 -0.000015 0.000940 -0.000001 -0.000001 0.000000 -8.076759 -0.486427 -3.806066 72.637750 21.741001 -15.951272 -3.600046 0.000250 -0.003573 75.416784 11.396529 -8.535121 -2.100022 0.000304 -0.005523 79.842999 6.419392 -5.187144 -2.115776 -0.000036 -0.003674 -0.000001 -0.000001 0.000000 4.570446 11.014691 -2.160851 -0.000018 0.000010 -0.000021 10.592466 -0.524460 -2.232415 75.706240 -33.058590 25.975215 27.841824 0.000038 -0.000191 111.165727 -76.539940 98.052153 28.328814 -0.000029 0.000020 0.000018 -0.000090 0.000001 2.466019 -1.576162 2.681911 -37.909992 166.516296 -16.555947 3.217868 -1.871852 1.916408 156.276367 -23.530610 41.623432 2.656105 -1.528684 1.514478 135.130006 -29.109382 53.247697 2.020883 -1.154071 1.115146 0.000005 -0.000003 0.000002 9.109376 -0.517875 2.259722 82.475634 -17.213964 15.104975 3.700041 0.000146 -0.000489 80.857275 -11.427437 9.758432 2.850038 0.000193 0.000194 80.085300 -9.388634 7.894046 2.774890 -0.000029 -0.000025 -0.000003 0.000000 -0.000001 9.533451 0.000194 -0.000083 81.268439 -16.579915 14.246342 3.700034 0.000174 -0.000390 83.752148 -11.000683 9.865633 2.950037 0.000181 -0.000197 84.415674 -11.466875 10.409174 2.952859 -0.000030 0.000064 0.000001 0.000000 -0.000000 9.104593 -0.042871 -1.865220 80.279646 -16.528925 13.967874 3.150036 0.000183 -0.000093 85.450318 -13.250946 12.248110 2.950031 0.000184 -0.000072 87.097548 -11.944143 11.359542 2.644316 0.000030 0.000053 0.000002 0.000001 0.000000 8.077848 -0.486753 -3.806391 68.426509 -19.560173 13.792824 3.600000 0.000143 0.014570 69.052181 -18.134793 12.908810 2.100032 0.000149 0.007545 71.845127 -13.955663 10.496883 2.125505 -0.000016 0.007514 -0.000000 -0.000002 -0.000000 -8.207786 -6.751667 -1.599560 -0.077001 -0.000003 0.000080 -0.000002 -44.370110 0.345938 0.153719 -0.000000 -0.000000 0.000000 -44.423679 -3.043532 -0.076700 0.000000 -0.000002 -0.000006 -8.728667 10.710559 -0.000009 -0.000000 -0.000000 -0.000001 -0.000679 9.278123 0.000000 -0.000000 -0.000000 8.207792 -6.751710 -1.599556 -0.074518 -0.000003 0.000081 -0.000002 -44.370014 0.346960 0.148822 0.000002 0.000000 -0.000001 -44.423664 -3.044403 -0.074314 0.000000 -0.000002 -0.000004 -8.728671 10.710558 0.000007 -0.000000 -0.000000 0.000000 -0.000680 9.278137 -0.000000 0.000000 -0.000001 
